# xmcd
#
# Track frame offsets:
#	150
#	14212
#	28810
#	43002
#	56732
#	72802
#	90645
#	105650
#	120480
#	137162
#	150465
#	162095
#	181630
#
# Disc length: 2624 seconds
#
# Revision: 1
# Processed by: cddbd v1.5.2PL0 Copyright (c) Steve Scherf et al.
# Submitted via: audiograbber 1.83.01
#
DISCID=a70a3e0d
DTITLE=Various Artist - CDX 30 April 1992
DYEAR=1992
DGENRE=Country
TTITLE0=Michael White - Familiar Ground
TTITLE1=Ricky Skaggs - From The Word Love
TTITLE2=Linda Davis - He Isn't My Affair Anymore
TTITLE3=Highway 101 - Honky Tonk Baby
TTITLE4=Anne Murray - I Can See Arkansas
TTITLE5=Wynonna Judd - I Saw The Light
TTITLE6=Mario Martin - It Takes A Lotta Heart
TTITLE7=Gerry House - My Jeans Are Too Tight
TTITLE8=Michael Johnson - One Honest Tear
TTITLE9=Terry Canady - Rubbergate
TTITLE10=Davis Daniel - Still Got A Crush On You
TTITLE11=Reba McEntire - The Night The Lights Went Out In Georgia
TTITLE12=Dreamer - Thunder And Lightning
EXTD=
EXTT0=
EXTT1=
EXTT2=
EXTT3=
EXTT4=
EXTT5=
EXTT6=
EXTT7=
EXTT8=
EXTT9=
EXTT10=
EXTT11=
EXTT12=
PLAYORDER=
